<mxfile host="app.diagrams.net" modified="2023-06-25T10:18:52.448Z" agent="Mozilla/5.0 (Linux; Android 10; ANG-LX1) AppleWebKit/537.36 (KHTML, like Gecko) Chrome/109.0.0.0 Mobile Safari/537.36" version="21.5.0" etag="-PN6kzNDa06xlzG8-XgR" type="github">
  <diagram name="Page-1" id="EWgQHNj2MGJQvDEnZH2f">
    <mxGraphModel>
      <root>
        <mxCell id="0" />
        <mxCell id="1" parent="0" />
      </root>
    </mxGraphModel>
  </diagram>
</mxfile>
